<?xml version="1.0" encoding="UTF-8" standalone="no"?>
<!DOCTYPE svg PUBLIC "-//W3C//DTD SVG 1.1//EN" "http://www.w3.org/Graphics/SVG/1.1/DTD/svg11.dtd">
<svg width="100%" height="100%" viewBox="0 0 1080 1080" version="1.1" xmlns="http://www.w3.org/2000/svg" xmlns:xlink="http://www.w3.org/1999/xlink" xml:space="preserve" xmlns:serif="http://www.serif.com/" style="fill-rule:evenodd;clip-rule:evenodd;stroke-linejoin:round;stroke-miterlimit:2;">
    <g transform="matrix(0.820589,0,0,0.820589,278.791,289.329)">
        <path d="M292.855,132.345L207.548,132.345L121.878,396.011L207.185,396.011L292.855,132.345Z" style="fill:rgb(255,117,117);"/>
        <path d="M180.662,396.011L121.878,396.011L180.662,215.093L180.662,396.011Z" style="fill:rgb(255,201,76);"/>
        <path d="M289.619,142.304L228.411,330.684C218.074,311.315 212.246,289.066 212.246,265.41C212.246,210.855 243.962,163.785 289.619,142.304Z" style="fill:rgb(255,201,76);"/>
        <path d="M178.662,156.527L100.848,396.011L89.951,396.011L89.951,132.345L178.662,132.345L178.662,156.527Z" style="fill:rgb(22,212,255);"/>
        <path d="M313.319,134.087C323.87,131.34 334.924,129.88 346.311,129.88C419.752,129.88 479.377,190.609 479.377,265.41C479.377,340.211 421.112,400.939 346.311,400.939C304.004,400.939 266.987,381.512 242.808,351.096L313.319,134.087Z" style="fill:rgb(22,212,255);"/>
        <g transform="matrix(1.30329,0,0,1.30329,-921.58,-476.101)">
            <rect x="776.658" y="684.576" width="5.56" height="34.239" style="fill:rgb(255,117,117);fill-rule:nonzero;"/>
            <path d="M796.493,718.815L791.134,718.815L804.304,683.43L809.614,683.43L796.493,718.815Z" style="fill:rgb(255,117,117);fill-rule:nonzero;"/>
            <path d="M833.777,719.16C830.623,719.16 827.721,718.413 825.071,716.919C822.421,715.424 820.324,713.339 818.78,710.662C817.235,707.985 816.463,704.972 816.463,701.622C816.463,698.272 817.235,695.267 818.78,692.606C820.324,689.946 822.421,687.869 825.071,686.374C827.721,684.88 830.623,684.133 833.777,684.133C836.964,684.133 839.882,684.88 842.532,686.374C845.182,687.869 847.271,689.946 848.799,692.606C850.327,695.267 851.091,698.272 851.091,701.622C851.091,704.972 850.327,707.985 848.799,710.662C847.271,713.339 845.182,715.424 842.532,716.919C839.882,718.413 836.964,719.16 833.777,719.16ZM833.777,714.283C836.021,714.283 838.02,713.766 839.776,712.731C841.532,711.697 842.906,710.219 843.897,708.297C844.889,706.376 845.385,704.151 845.385,701.622C845.385,699.093 844.889,696.876 843.897,694.971C842.906,693.066 841.532,691.605 839.776,690.587C838.02,689.568 836.021,689.059 833.777,689.059C831.534,689.059 829.534,689.568 827.778,690.587C826.022,691.605 824.649,693.066 823.657,694.971C822.665,696.876 822.169,699.093 822.169,701.622C822.169,704.151 822.665,706.376 823.657,708.297C824.649,710.219 826.022,711.697 827.778,712.731C829.534,713.766 831.534,714.283 833.777,714.283Z" style="fill:rgb(255,117,117);fill-rule:nonzero;"/>
            <path d="M902.107,714.283L913.569,714.283L913.569,718.815L896.547,718.815L896.547,684.576L902.107,684.576L902.107,714.283Z" style="fill:rgb(255,117,117);fill-rule:nonzero;"/>
            <path d="M955.708,711.82L941.515,711.82L939.077,718.815L933.273,718.815L945.417,684.527L951.855,684.527L964,718.815L958.147,718.815L955.708,711.82ZM954.148,707.238L948.636,691.326L943.076,707.238L954.148,707.238Z" style="fill:rgb(255,117,117);fill-rule:nonzero;"/>
            <path d="M1004.48,701.228C1006.3,701.556 1007.85,702.525 1009.11,704.134C1010.38,705.744 1011.02,707.567 1011.02,709.603C1011.02,711.344 1010.57,712.912 1009.68,714.308C1008.78,715.704 1007.49,716.804 1005.8,717.608C1004.11,718.413 1002.14,718.815 999.896,718.815L986.337,718.815L986.337,684.576L999.262,684.576C1001.57,684.576 1003.55,684.97 1005.21,685.759C1006.87,686.547 1008.12,687.606 1008.97,688.936C1009.81,690.266 1010.24,691.752 1010.24,693.395C1010.24,695.365 1009.72,697.007 1008.68,698.321C1007.63,699.635 1006.24,700.604 1004.48,701.228ZM991.897,698.962L998.774,698.962C1000.6,698.962 1002.02,698.543 1003.04,697.705C1004.07,696.868 1004.58,695.661 1004.58,694.084C1004.58,692.541 1004.07,691.334 1003.04,690.463C1002.02,689.593 1000.6,689.158 998.774,689.158L991.897,689.158L991.897,698.962ZM999.408,714.234C1001.29,714.234 1002.77,713.774 1003.85,712.854C1004.92,711.935 1005.46,710.654 1005.46,709.012C1005.46,707.337 1004.89,706.007 1003.75,705.021C1002.61,704.036 1001.1,703.543 999.213,703.543L991.897,703.543L991.897,714.234L999.408,714.234Z" style="fill:rgb(255,117,117);fill-rule:nonzero;"/>
            <path d="M1045.3,719.16C1043.03,719.16 1040.98,718.758 1039.16,717.953C1037.34,717.149 1035.91,716.007 1034.87,714.529C1033.83,713.051 1033.31,711.327 1033.31,709.357L1039.26,709.357C1039.39,710.834 1039.96,712.05 1040.99,713.002C1042.01,713.955 1043.45,714.431 1045.3,714.431C1047.22,714.431 1048.72,713.963 1049.79,713.027C1050.86,712.091 1051.4,710.884 1051.4,709.406C1051.4,708.256 1051.07,707.32 1050.4,706.598C1049.73,705.875 1048.9,705.317 1047.91,704.923C1046.92,704.529 1045.55,704.102 1043.79,703.642C1041.58,703.051 1039.78,702.451 1038.4,701.844C1037.02,701.236 1035.84,700.292 1034.87,699.011C1033.89,697.73 1033.4,696.022 1033.4,693.887C1033.4,691.917 1033.89,690.192 1034.87,688.714C1035.84,687.237 1037.21,686.103 1038.96,685.315C1040.72,684.527 1042.75,684.133 1045.06,684.133C1048.34,684.133 1051.03,684.962 1053.13,686.621C1055.23,688.279 1056.39,690.554 1056.62,693.444L1050.47,693.444C1050.38,692.196 1049.79,691.128 1048.72,690.242C1047.64,689.355 1046.23,688.912 1044.47,688.912C1042.88,688.912 1041.58,689.322 1040.57,690.143C1039.56,690.964 1039.06,692.147 1039.06,693.69C1039.06,694.741 1039.38,695.603 1040.01,696.277C1040.64,696.95 1041.45,697.484 1042.43,697.878C1043.4,698.272 1044.73,698.699 1046.42,699.159C1048.67,699.783 1050.5,700.407 1051.91,701.031C1053.33,701.655 1054.53,702.615 1055.52,703.913C1056.51,705.21 1057.01,706.943 1057.01,709.11C1057.01,710.851 1056.55,712.493 1055.62,714.037C1054.69,715.58 1053.34,716.82 1051.57,717.756C1049.8,718.692 1047.71,719.16 1045.3,719.16Z" style="fill:rgb(255,117,117);fill-rule:nonzero;"/>
        </g>
    </g>
</svg>
